<svg xmlns="http://www.w3.org/2000/svg" width="2106" height="908" fill="none"><path fill="#3E8BF6" d="M0 0h2106v908H0z"/><path fill="#fff" d="M964.612 409.098c-26.535 0-45.368 18.661-45.368 44.681 0 27.22 20.717 44.511 47.079 44.511 12.423 0 28.788-3.996 37.877-15.257.94-1.158.88-2.828-.18-3.873l-8.599-8.469c-1.09-1.073-2.855-1.105-3.942-.028-7.017 6.953-15.971 9.651-24.13 9.651-12.668 0-23.283-7.019-24.651-21.227h63.992c.71 0 1.32-.515 1.41-1.215.22-1.667.34-3.399.34-5.464 0-13.009-4.63-23.624-12.503-31.326-7.702-7.705-18.658-11.985-31.326-11.985l.001.001zm-21.744 35.779c1.543-11.47 9.589-18.489 21.23-18.489 6.162 0 11.47 2.055 15.234 5.993 2.911 3.252 5.136 7.361 5.821 12.496h-42.285zm515.632-23.795c-7.7-7.704-18.66-11.985-31.32-11.985-26.54 0-45.37 18.661-45.37 44.682 0 27.22 20.71 44.51 47.08 44.51 12.42 0 28.79-3.995 37.87-15.256.94-1.159.89-2.828-.17-3.873l-8.6-8.469c-1.1-1.074-2.86-1.105-3.95-.028-7.01 6.952-15.97 9.65-24.13 9.65-12.66 0-23.28-7.019-24.65-21.227h64c.7 0 1.31-.514 1.41-1.215.22-1.667.33-3.399.33-5.462 0-13.01-4.62-23.625-12.5-31.327zm-53.07 23.794c1.54-11.47 9.59-18.489 21.23-18.489 6.16 0 11.47 2.055 15.24 5.993 2.91 3.252 5.13 7.361 5.82 12.496h-42.29zm-289.94 33.856c.01-.036 0-.074.01-.111h-4.44v-64.089a3.55 3.55 0 0 0-3.55-3.551h-13.13c-1.96 0-3.55 1.59-3.55 3.551v6.178c-7.53-7.171-17.61-11.613-29.24-11.613-25.68 0-43.65 19.174-43.65 44.682 0 25.163 17.8 44.51 43.65 44.51 13.18 0 23.28-5.479 30.47-13.693v3.459c0 4.707 3.82 8.522 8.52 8.522h14.36c1.96 0 3.55-1.59 3.55-3.551v-10.853c0-1.767-1.31-3.166-3-3.441zm-50.13-.472c-14.04 0-24.14-10.787-24.14-24.481 0-13.867 10.1-24.651 24.14-24.651 12.66 0 23.79 8.901 23.79 24.651 0 15.578-11.13 24.481-23.79 24.481zm310.13.361h-6.4v-32.888c0-21.912-13.86-36.636-35.09-36.636-12.84 0-22.77 5.308-29.45 13.184-5.81-8.389-15.23-13.184-27.39-13.184-12.15 0-21.19 5.205-27.18 12.943v-7.677a3.55 3.55 0 0 0-3.55-3.551h-13.13a3.544 3.544 0 0 0-3.55 3.551v75.56a6.647 6.647 0 0 0 6.65 6.654h23.53c1.96 0 3.55-1.59 3.55-3.551v-10.854a3.551 3.551 0 0 0-3.55-3.551h-6.39v-31.004c0-11.128 7.19-18.147 17.63-18.147 10.28 0 16.27 7.019 16.27 18.147v42.306a6.654 6.654 0 0 0 6.65 6.654h21.04c1.95 0 3.53-1.582 3.53-3.534v-10.888a3.532 3.532 0 0 0-3.53-3.534h-3.9v-31.004c0-11.128 7.36-18.148 17.63-18.148s16.44 7.019 16.44 18.148v31.004l.01 8.874v2.427a6.654 6.654 0 0 0 6.65 6.654h23.53a3.55 3.55 0 0 0 3.55-3.551v-10.853a3.55 3.55 0 0 0-3.55-3.551zm-167.61-96.423h-19.13c-1.96 0-3.55 1.59-3.55 3.551v10.854a3.551 3.551 0 0 0 3.55 3.551h1.01v.019h2.85v17.485c-7.02-5.307-15.75-8.561-25.68-8.561-25.67 0-43.65 19.174-43.65 44.681 0 25.164 17.8 44.511 43.65 44.511 12.46 0 22.13-4.927 29.23-12.398v7.134a3.55 3.55 0 0 0 3.55 3.551h13.13a3.55 3.55 0 0 0 3.55-3.551v-11.933l.02-.004v-90.367c0-4.708-3.82-8.523-8.53-8.523zm-37.18 96.063c-14.04 0-24.14-10.787-24.14-24.482 0-13.866 10.1-24.65 24.14-24.65 12.67 0 23.79 8.9 23.79 24.65 0 15.579-11.12 24.482-23.79 24.482zm-379.438-75.472h-41.554c-14.599 0-26.791 10.221-29.866 23.892-3.074-13.671-15.265-23.892-29.866-23.892h-41.554c-7.965 0-14.422 6.456-14.422 14.422v73.118c0 7.965 6.457 14.422 14.422 14.422h27.574l.001.001c28.757.088 38.186 6.841 42.73 20.642.187.427.62.736 1.116.736a1.22 1.22 0 0 0 1.114-.736c4.542-13.801 13.973-20.554 42.73-20.642l.001-.001h27.575c7.966 0 14.422-6.457 14.422-14.422v-73.118c0-7.965-6.456-14.422-14.422-14.422h-.001zm-85.224 78.324c0 .85-.689 1.539-1.539 1.539h-46.966c-.85 0-1.539-.689-1.539-1.539v-5.845c0-.85.689-1.54 1.539-1.54h46.966c.85 0 1.539.69 1.539 1.54v5.845zm0-18.193c0 .85-.689 1.539-1.539 1.539h-46.966c-.85 0-1.539-.689-1.539-1.539v-5.845c0-.85.689-1.539 1.539-1.539h46.966c.85 0 1.539.689 1.539 1.539v5.845zm0-18.193c0 .85-.689 1.54-1.539 1.54h-46.966a1.54 1.54 0 0 1-1.539-1.54v-5.845c0-.85.689-1.539 1.539-1.539h46.966c.85 0 1.539.689 1.539 1.539v5.845zm77.653 36.386c0 .85-.689 1.539-1.539 1.539h-46.966c-.85 0-1.539-.689-1.539-1.539v-5.845c0-.85.689-1.54 1.539-1.54h46.966c.85 0 1.539.69 1.539 1.54v5.845zm0-18.193c0 .85-.689 1.539-1.539 1.539h-46.966c-.85 0-1.539-.689-1.539-1.539v-5.845c0-.85.689-1.539 1.539-1.539h46.966c.85 0 1.539.689 1.539 1.539v5.845zm0-18.193c0 .85-.689 1.54-1.539 1.54h-46.966a1.54 1.54 0 0 1-1.539-1.54v-5.845c0-.85.689-1.539 1.539-1.539h46.966c.85 0 1.539.689 1.539 1.539v5.845zm139.098-31.217c-2.782-1.874-9.321-5.036-21.209-4.413-10.773.565-19.175 5.651-24.824 14.724v-1.712l-.002-.063v-2.545a8.523 8.523 0 0 0-8.524-8.523h-18.563a3.55 3.55 0 0 0-3.551 3.551v11.215a3.551 3.551 0 0 0 3.551 3.551h3.273l-1.381.002h1.912l.004.001h3.934v49.322h-6.378a3.517 3.517 0 0 0-3.517 3.517v10.923a3.517 3.517 0 0 0 3.517 3.516h36.538a3.515 3.515 0 0 0 3.515-3.515v-10.924a3.517 3.517 0 0 0-3.516-3.517h-6.363v-28.093c0-11.985 7.034-20.14 18.316-20.713 5.253-.268 8.967.535 11.245 1.303.635.214 1.298-.109 1.578-.716a48.655 48.655 0 0 1 10.582-14.841c.617-.59.568-1.573-.139-2.049l.002-.001z"/></svg>